<svg height="48" viewBox="0 0 48 48" width="48" xmlns="http://www.w3.org/2000/svg"><g fill="none" fill-rule="evenodd"><path d="m0 0h48v48h-48z" opacity=".643322"/><path d="m17 9h14c4.418278 0 8 3.581722 8 8v14c0 4.418278-3.581722 8-8 8h-14c-4.418278 0-8-3.581722-8-8v-14c0-4.418278 3.581722-8 8-8zm12.5064236 9.6368327-7.4335069 7.2082491-2.746007-2.6627946c-.660809-.6407845-1.7159591-.6245514-2.3567437.0362576-.6407845.6608091-.6245515 1.7159592.0362576 2.3567437l3.90625 3.7878788c.6464783.626888 1.6740079.626888 2.3204861 0l8.59375-8.3333333c.6608091-.6407846.6770422-1.6959347.0362576-2.3567437-.6407845-.6608091-1.6959346-.6770422-2.3567437-.0362576z" fill="#4f7afd"/></g></svg>